Coordinates
version=1
nRows=17
nColumns=38
inDegrees=no

Units are S.I. units (second, meters, Newtons, ...)
If the header above contains a line with 'inDegrees', this indicates whether rotational values are in degrees (yes) or radians (no).

endheader
time	pelvis_tilt	pelvis_list	pelvis_rotation	pelvis_tx	pelvis_ty	pelvis_tz	hip_flexion_r	hip_adduction_r	hip_rotation_r	knee_angle_r	ankle_angle_r	subtalar_angle_r	mtp_angle_r	hip_flexion_l	hip_adduction_l	hip_rotation_l	knee_angle_l	ankle_angle_l	subtalar_angle_l	mtp_angle_l	lumbar_extension	lumbar_bending	lumbar_rotation	arm_flex_r	arm_add_r	arm_rot_r	elbow_flex_r	pro_sup_r	wrist_flex_r	wrist_dev_r	arm_flex_l	arm_add_l	arm_rot_l	elbow_flex_l	pro_sup_l	wrist_flex_l	wrist_dev_l
0.48	0.036771	1.30749	-1.48742	0.637355	1.00616	1.11543	0.138318	0.000622038	0.062379	1.03356	-0.203578	0	0	-0.252144	-0.0752849	-0.307974	0.376209	-0.212413	0	0	-0.394857	0.100601	-0.0996461	0.476006	-0.537601	0.470109	1.20677	0.695848	0	0	0.269892	-0.429112	0.0881128	1.27583	0.880701	0	0
0.49	0.0275989	1.31136	-1.47885	0.638921	0.996192	1.115	0.155514	0.00510721	0.0598459	1.00605	-0.19577	0	0	-0.258388	-0.0769469	-0.309104	0.376183	-0.211544	0	0	-0.392865	0.102508	-0.099295	0.477806	-0.536837	0.469545	1.20781	0.696766	0	0	0.271754	-0.430971	0.0881568	1.27726	0.880748	0	0
0.5	0.0237947	1.31546	-1.47398	0.640957	0.986046	1.11433	0.17144	0.00640453	0.054294	0.976554	-0.180867	0	0	-0.264128	-0.0770528	-0.30855	0.376997	-0.207292	0	0	-0.389779	0.103932	-0.100782	0.47912	-0.536679	0.468975	1.209	0.695529	0	0	0.273068	-0.431606	0.0876268	1.27818	0.880129	0	0
0.51	0.0211503	1.31924	-1.47096	0.642744	0.975905	1.11353	0.185744	0.00814071	0.0507184	0.944061	-0.168248	0	0	-0.270158	-0.0769401	-0.30822	0.37824	-0.203527	0	0	-0.387177	0.104614	-0.101711	0.480737	-0.536168	0.468484	1.20996	0.694117	0	0	0.274618	-0.432821	0.0874455	1.27907	0.880286	0	0
0.52	0.0230027	1.32349	-1.47109	0.644996	0.965549	1.11248	0.198812	0.00715112	0.0450236	0.909439	-0.156334	0	0	-0.275644	-0.075135	-0.30619	0.379563	-0.199508	0	0	-0.383405	0.105069	-0.104085	0.482127	-0.536762	0.469132	1.21145	0.693869	0	0	0.2756	-0.433334	0.087225	1.27961	0.881856	0	0
0.53	0.0227382	1.32786	-1.47098	0.646615	0.955241	1.11128	0.211064	0.00850827	0.0444259	0.872274	-0.143576	0	0	-0.280848	-0.0741624	-0.305172	0.381456	-0.193247	0	0	-0.380245	0.104653	-0.104382	0.482223	-0.535184	0.465901	1.21265	0.700336	0	0	0.276781	-0.434043	0.0861145	1.28092	0.882223	0	0
0.54	0.0199785	1.33196	-1.47054	0.647563	0.945021	1.11	0.221753	0.0125454	0.0494717	0.831616	-0.134921	0	0	-0.286156	-0.0743793	-0.306212	0.384177	-0.187988	0	0	-0.378	0.10362	-0.102786	0.485016	-0.534807	0.467533	1.21342	0.695738	0	0	0.278211	-0.435204	0.084426	1.28261	0.881119	0	0
0.55	0.0227983	1.33648	-1.47384	0.649134	0.934539	1.10849	0.230942	0.0131421	0.0507781	0.788844	-0.128025	0	0	-0.291088	-0.072685	-0.305021	0.386413	-0.186623	0	0	-0.374374	0.102496	-0.10293	0.485736	-0.534136	0.466151	1.21462	0.696853	0	0	0.279329	-0.43595	0.0837932	1.28355	0.881044	0	0
0.56	0.0300421	1.34084	-1.47968	0.651305	0.923816	1.10682	0.238002	0.0106186	0.04788	0.743806	-0.120802	0	0	-0.296024	-0.0696709	-0.30222	0.388911	-0.182664	0	0	-0.370006	0.101743	-0.104931	0.48614	-0.534808	0.465546	1.21653	0.695455	0	0	0.279954	-0.435169	0.0825838	1.2837	0.881403	0	0
0.57	0.0344137	1.34489	-1.48433	0.652785	0.913118	1.10507	0.243706	0.010397	0.0489049	0.696499	-0.114521	0	0	-0.301097	-0.0680856	-0.301676	0.39204	-0.178966	0	0	-0.366517	0.1004	-0.105119	0.487108	-0.535062	0.465468	1.21807	0.694564	0	0	0.28098	-0.43468	0.0809099	1.28412	0.8806	0	0
0.58	0.0355025	1.34868	-1.48709	0.65368	0.902395	1.10324	0.247959	0.0122407	0.0530901	0.647248	-0.108145	0	0	-0.306246	-0.0679726	-0.303327	0.395988	-0.175769	0	0	-0.363582	0.0988117	-0.1038	0.488286	-0.534427	0.46527	1.21898	0.694438	0	0	0.282175	-0.43519	0.0795106	1.2849	0.879698	0	0
0.59	0.0393779	1.3522	-1.49079	0.655078	0.891372	1.10131	0.250007	0.0117419	0.0523596	0.596494	-0.100238	0	0	-0.311938	-0.0671173	-0.303317	0.399442	-0.172567	0	0	-0.360051	0.0977252	-0.104185	0.488614	-0.534156	0.464483	1.22009	0.694308	0	0	0.282678	-0.435244	0.0783074	1.28558	0.879596	0	0
0.6	0.040205	1.35428	-1.49158	0.656243	0.880279	1.09945	0.248208	0.0126218	0.051995	0.541451	-0.0925786	0	0	-0.319276	-0.0673587	-0.303707	0.402973	-0.168193	0	0	-0.358374	0.0971769	-0.103866	0.487798	-0.53267	0.460368	1.22165	0.700217	0	0	0.283584	-0.435592	0.077187	1.2868	0.880275	0	0
0.61	0.0413756	1.35528	-1.4913	0.657725	0.868922	1.09758	0.243141	0.0126139	0.0475609	0.484224	-0.0831096	0	0	-0.327958	-0.0675721	-0.303504	0.406114	-0.165131	0	0	-0.356751	0.0975254	-0.105861	0.491081	-0.534781	0.466055	1.22279	0.690912	0	0	0.282871	-0.435499	0.0745103	1.28833	0.880091	0	0
0.62	0.0406308	1.35549	-1.48951	0.658926	0.857456	1.09572	0.235175	0.0139312	0.0448162	0.424168	-0.0736092	0	0	-0.337613	-0.0686281	-0.304169	0.409354	-0.162812	0	0	-0.356247	0.0979259	-0.106809	0.492418	-0.535117	0.467041	1.2243	0.688648	0	0	0.282736	-0.435998	0.0728039	1.29014	0.879882	0	0
0.63	0.0434726	1.35479	-1.48895	0.660668	0.845637	1.09386	0.223284	0.0133273	0.0372805	0.360823	-0.0670194	0	0	-0.348665	-0.0691543	-0.30251	0.411999	-0.161045	0	0	-0.35569	0.0987701	-0.109838	0.492838	-0.536249	0.467699	1.22635	0.687052	0	0	0.282209	-0.435611	0.0713238	1.29148	0.878956	0	0
0.64	0.044204	1.35238	-1.48619	0.662168	0.833662	1.09209	0.206929	0.0141313	0.0311649	0.293687	-0.0685985	0	0	-0.3614	-0.0710004	-0.301311	0.4153	-0.159597	0	0	-0.356641	0.0999366	-0.112633	0.493336	-0.537278	0.468395	1.22831	0.686319	0	0	0.2819	-0.436045	0.0705211	1.29293	0.878249	0	0
